<?xml version="1.0" encoding="UTF-8"?>
<!DOCTYPE svg PUBLIC "-//W3C//DTD SVG 1.1//EN" "http://www.w3.org/Graphics/SVG/1.1/DTD/svg11.dtd">
<!-- Creator: CorelDRAW X7 -->
<svg xmlns="http://www.w3.org/2000/svg" xml:space="preserve" width="1228px" height="1418px" version="1.1" style="shape-rendering:geometricPrecision; text-rendering:geometricPrecision; image-rendering:optimizeQuality; fill-rule:evenodd; clip-rule:evenodd"
viewBox="0 0 1228 1418"
 xmlns:xlink="http://www.w3.org/1999/xlink">
 <defs>
  <style type="text/css">
   <![CDATA[
    .fil1 {fill:blue}
    .fil0 {fill:#FF6600}
   ]]>
  </style>
 </defs>
 <g id="Layer_x0020_1">
  <metadata id="CorelCorpID_0Corel-Layer"/>
  <polygon class="fil0" points="0,354 614,0 716,59 0,591 "/>
  <path class="fil0" d="M0 827l921 -650 -102 -59 -819 473c0,0 0,236 0,236z"/>
  <polygon class="fil0" points="0,1063 0,827 1023,236 1126,295 "/>
  <path class="fil1" d="M0 1063l256 -147c71,123 205,207 358,207 228,0 414,-186 414,-414 0,-75 -21,-146 -56,-207l256 -148 0 709 -614 355 -614 -355z"/>
 </g>
</svg>
